# xmcd CD database file
#
# Track frame offsets:
#	150
#	12605
#	39605
#	61907
#	83670
#	97942
#	135007
#	153821
#	163751
#	182207
#	201121
#	219982
#	244324
#	257324
#	272115
#	294935
#	312050
#	325241
#	342340
#
# Disc length: 4809 seconds
#
# Revision: 0
# Processed by: cddbd v1.5.1PL2 Copyright (c) Steve Scherf et al.
# Submitted via: Feurio! 1.68 - http://www.feurio.com
#
DISCID=fe12c713
DTITLE=Marvin Gaye - A Funky Soul And Blues Reincarnation
DYEAR=1900
DGENRE=Soul
TTITLE0=Can I Get A Witness
TTITLE1=Rockin' After Midnight
TTITLE2=Heard It Through The Grape Vine
TTITLE3=Let's Get It On
TTITLE4=Mercy Mercy Me
TTITLE5=A Funky Space Reincarnation
TTITLE6=Abraham, Martin And John
TTITLE7=Aint Nothing Like The Real Thing
TTITLE8=Boogie Nights
TTITLE9=Distant Lover
TTITLE10=Got To Give It Up
TTITLE11=Inner City Blues
TTITLE12=My Mistake
TTITLE13=Ooh, Child
TTITLE14=Turn On Some Music
TTITLE15=What's Going On
TTITLE16=How Sweet It Is
TTITLE17=Brother Brother
TTITLE18=Let's Make Love Tonight
EXTD=
EXTT0=
EXTT1=
EXTT2=
EXTT3=
EXTT4=
EXTT5=
EXTT6=
EXTT7=
EXTT8=
EXTT9=
EXTT10=
EXTT11=
EXTT12=
EXTT13=
EXTT14=
EXTT15=
EXTT16=
EXTT17=
EXTT18=
PLAYORDER=
